<svg width="582" height="323" fill="none" xmlns="http://www.w3.org/2000/svg"><path d="M537.377 258.138a557.15 557.15 0 01-1.939 4.139 1431.129 1431.129 0 01-2.979 6.219c-.436.901-.872 1.785-1.297 2.668a829.964 829.964 0 01-13.106 25.666 40.94 40.94 0 01-14.866 15.721 40.904 40.904 0 01-20.798 5.941l-84.758.923h-.895l-7.265.078-6.215.067-19.042.218h-.772l-9.702.107h-.296l-59.803.649-53.382.559-6.209.067-38.564.419h-.062l-25.011.269h-.268l-79.085.856-23.659.257a49.19 49.19 0 01-8.07-.576 48.833 48.833 0 01-28.667-15.403C20.49 295.729 13.084 282.697 8.11 268.496a131.65 131.65 0 01-2.012-6.219c-17.22-58.273 3.772-133.42 41.554-183.696a193.242 193.242 0 014.83-6.152l.038-.045c11.62-14.273 24.648-26.197 38.526-34.676 24.592-15.05 51.838-19.29 78.638-6.656 22.675 10.694 43.846 15.722 64.369 17.087 2.074.134 4.147.235 6.209.296 47.077 1.482 91.197-15.492 143.008-26.449 2.062-.436 4.13-.867 6.215-1.275 36.96-7.36 77.962-11.242 126.721-3.082a105.629 105.629 0 0114.956 3.58c2.15.693 4.221 1.439 6.215 2.237 23.273 9.474 35.966 26.98 41.359 48.916.51 2.036.952 4.107 1.325 6.214 9.562 52.764-18.444 127.609-42.684 179.562z" fill="#F2F2F2"/><path opacity=".1" d="M277.787 262.277a53.165 53.165 0 01-1.045 6.219h52.37v-6.219h-51.325zm-43.734 35.129l6.209-.05v-15.364c-2.129-.095-4.202-.19-6.209-.291v15.705zm-130.18-35.129v6.219h110.943v-6.219H103.873zm474.891-189.91h-41.359V23.452a81.268 81.268 0 00-6.215-2.237V72.39H389.485V20.694c-2.085.408-4.153.839-6.215 1.275v50.399H240.262v-23.95a178.788 178.788 0 01-6.209-.296v24.246H91.046V37.69C77.168 46.17 64.14 58.094 52.52 72.368h-.039v.044a219.39 219.39 0 00-4.829 6.152h4.83v183.713H6.091c.619 2.099 1.29 4.172 2.012 6.219h44.372v52.362a48.538 48.538 0 006.818 1.56 48.99 48.99 0 008.07.576l23.66-.257v-54.252h143.029v52.692l6.209-.067v-52.614H383.27v51.07l6.215-.067v-51.003h141.677v2.668c.425-.883.861-1.767 1.297-2.668.98-2.028 1.972-4.101 2.979-6.219a576.726 576.726 0 001.939-4.139V78.604h42.712a93.48 93.48 0 00-1.325-6.236zM91.046 262.278V78.581h143.007v183.696H91.046zm149.228 0V78.581H383.27v183.696H240.274zm290.899 0H389.485V78.581h141.677l.011 183.696z" fill="#000"/><path d="M466.536 197.477a104.528 104.528 0 00-32.054-35.935 7.09 7.09 0 00-3.202-1.208c1.57-10.336 1.241-21.757-4.589-30.37-13.833-20.437-84.311.654-84.311.654-49.401-17.136-92.219 4.615-92.219 4.615s-54.672-8.569-79.7-1.975c-11.804 3.11-14.672 15.157-14.403 27.026h-.039a6.957 6.957 0 00-5.45 2.617c-6.656 8.322-26.766 33.955-26.218 38.905.66 5.934 22.395 83.05 21.412 120.294l303.648-3.356s5.03-74.946 17.611-115.971a6.965 6.965 0 00-.486-5.296z" fill="#3F3D56"/><path opacity=".1" d="M149.72 202.141l12.514-25.051 10.535 48.777.123 22.64-23.172-46.366zM436.897 202.141l-12.514-25.051-14.515 46.249 2.795 26.287 24.234-47.485z" fill="#000"/><path d="M171.852 224.536l238.038-1.304 2.639 26.366-239.76-.66-.917-24.402z" fill="#3F3D56"/><path opacity=".1" d="M171.852 224.536l238.038-1.304 2.639 26.366-239.76-.66-.917-24.402z" fill="#000"/><path opacity=".1" d="M407.929 247.031H177.626a5.853 5.853 0 00-5.852 5.855v16.634a5.854 5.854 0 005.852 5.856h230.303a5.854 5.854 0 005.852-5.856v-16.634a5.853 5.853 0 00-5.852-5.855z" fill="#fff"/><path d="M364.256 152.207s-.805-1.118-1.755-.514c-.453.296-2.582 2.981-4.673 5.71a522.773 522.773 0 00-2.861 3.759c-1.001 1.32-1.677 2.237-1.677 2.237l-.402.755-2.443 4.569-2.297 4.296-.559 2.024 7.758 2.64 8.831-2.41-.38-1.639-.068-.28.073-3.769.201-10.627.095-4.782v-.559l.157-1.41z" fill="#FFE09C"/><path d="M346.494 178.405s8.383 2.992 12.681 1.426c0 0 3.717-1.186 5.181-2.332 0 0 1.56-.817-.558-3.479 0 0-5.427 3.328-10.564 2.019l-5.136-1.314-1.604 3.68z" fill="#E7C4C3"/><path d="M355.845 174.619c1.308-.767 1.841-2.287 1.192-3.396s-2.235-1.386-3.543-.619c-1.308.767-1.841 2.287-1.192 3.396.649 1.108 2.235 1.386 3.543.619zM361.42 167.93c1.308-.767 1.841-2.287 1.192-3.396s-2.235-1.386-3.543-.619c-1.308.767-1.841 2.287-1.192 3.396s2.235 1.386 3.543.619zM363.798 169.585a2.87 2.87 0 00-2.616.207c-1.308.766-1.844 2.287-1.191 3.395.654 1.107 2.236 1.387 3.538.62a4.42 4.42 0 00.263-.173l-.067-.28.073-3.769zM354.313 165.149a2.15 2.15 0 00-1.431-.995l-2.442 4.569a2.85 2.85 0 002.682-.179c1.308-.766 1.839-2.287 1.191-3.395zM359.746 158.455a2.23 2.23 0 00-1.906-1.052 497.041 497.041 0 00-2.862 3.759l.034.067c.648 1.118 2.235 1.381 3.543.615 1.308-.766 1.828-2.282 1.191-3.389zM364.094 154.17a3.168 3.168 0 00-.822.336c-1.308.766-1.839 2.288-1.19 3.395a2.231 2.231 0 001.917 1.051l.095-4.782z" fill="#FF7F8E"/><path d="M351.077 172.51l-.447-.755a4.81 4.81 0 001.81-1.007c.034-.034.062-.073.09-.106.559-.705.441.76.441.76s-1.374 1.169-1.894 1.108zM357.672 171.341l-.447-.761a4.836 4.836 0 001.811-1.007c0-.033.061-.067.089-.106.559-.699.442.761.442.761s-1.375 1.174-1.895 1.113zM357.068 168.209l-.447-.761a4.844 4.844 0 001.811-1.001c.028-.039.062-.073.089-.106.559-.705.442.755.442.755s-1.375 1.163-1.895 1.113zM357.868 162.56l-.448-.761a4.847 4.847 0 001.811-1.006c0-.034.062-.068.09-.107.559-.704.441.761.441.761s-1.375 1.169-1.894 1.113zM361.651 155.725l-.441-.76a4.825 4.825 0 001.805-1.007.746.746 0 00.089-.106c.559-.7.448.76.448.76s-1.381 1.169-1.901 1.113zM361.227 162.7l-.448-.761a4.801 4.801 0 001.811-1.001c0-.039.062-.073.09-.106.559-.705.441.755.441.755s-1.375 1.174-1.894 1.113z" fill="#94CC79"/><path d="M345.119 176.039s-1.073 2.796 1.375 2.349a9.712 9.712 0 002.163-4.424s5.293-11.605 6.858-12.668c0 0 6.896-9.436 7.64-9.575 0 0 .24-.918-2.169 1.023-2.409 1.941-7.685 9.413-7.685 9.413l-5.03 8.205-1.185 3.272-1.967 2.405z" fill="#E7C4C3"/><path opacity=".2" d="M345.119 176.039s-1.073 2.796 1.375 2.349a9.712 9.712 0 002.163-4.424s5.293-11.605 6.858-12.668c0 0 6.896-9.436 7.64-9.575 0 0 .24-.918-2.169 1.023-2.409 1.941-7.685 9.413-7.685 9.413l-5.03 8.205-1.185 3.272-1.967 2.405z" fill="#fff"/><path d="M261.982 232.847a67.278 67.278 0 003.398 8.87 82.354 82.354 0 0011.329-3.232c.117-.04-2.118-2.965-2.353-3.205a11.254 11.254 0 00-3.203-2.461c-1.179-.515-2.632-.123-3.912-.056a75.44 75.44 0 01-5.259.084z" fill="#FBBEBE"/><path d="M271.176 237.439c-1.923-.604-3.097-2.545-3.879-4.413-.783-1.868-1.414-3.915-2.901-5.28a1.74 1.74 0 00-.778.327c-.228.172-.41.398-.53.657a16.32 16.32 0 01-.777 1.533c-.614.895-1.676 1.331-2.487 2.092-.81.76-1.263 1.918-2.107 2.684-1.062.962-2.56 1.203-3.951 1.522a25.175 25.175 0 00-6.193 2.293c-.719.434-1.489.78-2.291 1.029a8.478 8.478 0 01-2.683.089l-6.148-.436a4.902 4.902 0 00-1.643.067 2.999 2.999 0 00-1.957 3.093 4.822 4.822 0 001.945 3.317 13.127 13.127 0 003.51 1.773 103.37 103.37 0 0016.51 4.72v1.219a28.396 28.396 0 0012.57 2.931 1.99 1.99 0 00.939-.162c.404-.292.686-.722.794-1.208a48.811 48.811 0 002.565-13.423c.11-1.157.021-2.324-.262-3.451-.336-1.119.816-.643-.252-1.08" fill="#2F2E41"/><path d="M389.284 214.205c-18.26 1.119-36.329-4.256-54.583-4.826a26.806 26.806 0 00-6.791.436c-2.347.526-4.538 1.588-6.707 2.606-9.808 4.564-19.947 8.345-30.08 12.12l-11.636 4.34c-2.325.867-4.734 1.745-7.21 1.594-1.118-.067-2.476-.234-3.097.688-1.894 2.797-1 6.93.252 10.068.402 1.018 1.118 2.125 2.18 2.237.765.078 1.481-.364 2.235-.559 2.119-.56 4.231.861 6.411 1.09 2.694.285 5.192-1.247 7.735-2.187 4.214-1.56 8.825-1.51 13.257-2.237 7.434-1.241 14.32-4.692 20.758-8.624 2.448-1.499 4.93-3.104 7.747-3.652 3.236-.632 6.561.201 9.741 1.118a224.002 224.002 0 0122.323 7.607c3.845 1.543 7.668 3.193 11.67 4.261a42.184 42.184 0 0026.146-1.526c2.917-1.158 6.097-3.2 6.265-6.354.095-1.801-1.302-3.356-2.236-4.922-.592-.99-1.19-1.974-1.844-2.925-3.169-4.62-6.992-10.683-12.536-10.353z" fill="#2F2E41"/><path opacity=".1" d="M389.284 214.205c-18.26 1.119-36.329-4.256-54.583-4.826a26.806 26.806 0 00-6.791.436c-2.347.526-4.538 1.588-6.707 2.606-9.808 4.564-19.947 8.345-30.08 12.12l-11.636 4.34c-2.325.867-4.734 1.745-7.21 1.594-1.118-.067-2.476-.234-3.097.688-1.894 2.797-1 6.93.252 10.068.402 1.018 1.118 2.125 2.18 2.237.765.078 1.481-.364 2.235-.559 2.119-.56 4.231.861 6.411 1.09 2.694.285 5.192-1.247 7.735-2.187 4.214-1.56 8.825-1.51 13.257-2.237 7.434-1.241 14.32-4.692 20.758-8.624 2.448-1.499 4.93-3.104 7.747-3.652 3.236-.632 6.561.201 9.741 1.118a224.002 224.002 0 0122.323 7.607c3.845 1.543 7.668 3.193 11.67 4.261a42.184 42.184 0 0026.146-1.526c2.917-1.158 6.097-3.2 6.265-6.354.095-1.801-1.302-3.356-2.236-4.922-.592-.99-1.19-1.974-1.844-2.925-3.169-4.62-6.992-10.683-12.536-10.353z" fill="#000"/><path d="M297.036 233.736c2.854.973 5.738 1.87 8.652 2.69 1.627-2.673 4.673-4.536 5.366-7.589a.527.527 0 00-.139-.601.516.516 0 00-.191-.104 16.114 16.114 0 00-6.769-1.986c-1.877-.117-2.733 1.84-3.588 3.222-.341.554-2.565 4.631-3.331 4.368z" fill="#FBBEBE"/><path d="M301.06 231.784a6.244 6.244 0 01-4.203-2.763c-.402-.705-.832-1.678-1.637-1.605-.805.073-1.118.945-1.263 1.678a47.752 47.752 0 01-2.353 8.127 15.257 15.257 0 01-5.03 6.644c-1.062.733-2.236 1.286-3.276 2.058-.933.688-1.743 1.561-2.794 2.092-.687.318-1.397.584-2.124.794a14.85 14.85 0 00-3.04 1.482 6.048 6.048 0 00-2.068 1.98 2.903 2.903 0 00-.174 2.797 3 3 0 002.029 1.387 8.661 8.661 0 002.521.067c3.325-.246 6.651-.559 9.976-.839a29.122 29.122 0 004.181-.559c.732-.179 1.442-.409 2.168-.599a18.218 18.218 0 013.801-.559c.376-.03.754.004 1.118.101.771.251 1.313 1.017 2.113 1.174a3.348 3.348 0 001.503-.201c2.392-.655 4.913-.638 7.389-.772 1.118-.056 2.369-.263 2.872-1.242.626-1.219-.413-2.584-.821-3.915a11.853 11.853 0 01-.347-2.556 15.553 15.553 0 00-1.833-6.068c-.844-1.555-2.001-3.278-1.408-4.95.201-.559.603-1.119.559-1.678-.19-2.679-6.344-1.756-7.859-2.075z" fill="#2F2E41"/><path d="M361.903 184.893a14.299 14.299 0 01-7.266-7.232c-.307-.694-.559-1.415-.849-2.114a16.14 16.14 0 00-4.349-6.046 2.092 2.092 0 00-1.615-.683 1.733 1.733 0 00-1.185 1.276 5.076 5.076 0 00-.123 1.952c.164 1.537.429 3.061.794 4.563l.883 4.033c.109.622.297 1.227.559 1.801.379.68.881 1.283 1.481 1.778.81.75 1.632 1.471 2.465 2.176a6.915 6.915 0 004.275 1.902c3.622.671 7.311 1.644 10.374 4.01-.04 0 0-2.707-.067-3.015-.14-.811-.252-1.616-.777-2.164-1.202-1.231-3.153-1.583-4.6-2.237z" fill="#FBBEBE"/><path opacity=".1" d="M361.903 184.893a14.299 14.299 0 01-7.266-7.232c-.307-.694-.559-1.415-.849-2.114a16.14 16.14 0 00-4.349-6.046 2.092 2.092 0 00-1.615-.683 1.733 1.733 0 00-1.185 1.276 5.076 5.076 0 00-.123 1.952c.164 1.537.429 3.061.794 4.563l.883 4.033c.109.622.297 1.227.559 1.801.379.68.881 1.283 1.481 1.778.81.75 1.632 1.471 2.465 2.176a6.915 6.915 0 004.275 1.902c3.622.671 7.311 1.644 10.374 4.01-.04 0 0-2.707-.067-3.015-.14-.811-.252-1.616-.777-2.164-1.202-1.231-3.153-1.583-4.6-2.237z" fill="#000"/><path d="M399.087 154.014c2.454 0 4.443-2.001 4.443-4.469 0-2.468-1.989-4.469-4.443-4.469-2.454 0-4.443 2.001-4.443 4.469 0 2.468 1.989 4.469 4.443 4.469z" fill="#2F2E41"/><path d="M396.337 146.844c-1.202-.135-2.543-.23-3.51.509a4.755 4.755 0 00-1.202 1.633 23.64 23.64 0 00-2.308 5.442c-.397 1.633-.464 3.355-.956 4.944-.911 2.975-3.241 5.487-3.51 8.591-.117 1.387.118 3.014-.899 3.965a5.62 5.62 0 01-.794.559 6.031 6.031 0 00-1.749 1.801 5.825 5.825 0 01-1.241 1.717c-.906.672-2.403.599-2.851 1.639-.447 1.04.705 2.237.436 3.356-.218.917-1.24 1.337-1.945 1.963-.905.8-1.319 2.002-1.676 3.154a10.481 10.481 0 01-4.48-.128 10.478 10.478 0 01-4.016-1.991c1.235 3.054 1.263 6.426 1.319 9.726 0 1.068 0 2.271-.782 3.015 3.538.078 6.986 1.034 10.435 1.817 1.509.341 3.146.638 4.549 0a7.31 7.31 0 002.085-1.678c1.878-1.907 3.845-3.982 4.303-6.627.257-1.477 0-2.998.079-4.475a25.536 25.536 0 011.117-5.458 64.644 64.644 0 001.996-11.231c.201-2.338 2.235-4.223 3.286-6.32 2.012-3.949 4.063-8.065 4.214-12.5.073-1.466-.43-3.261-1.9-3.423z" fill="#2F2E41"/><path opacity=".1" d="M396.337 146.844c-1.202-.135-2.543-.23-3.51.509a4.755 4.755 0 00-1.202 1.633 23.64 23.64 0 00-2.308 5.442c-.397 1.633-.464 3.355-.956 4.944-.911 2.975-3.241 5.487-3.51 8.591-.117 1.387.118 3.014-.899 3.965a5.62 5.62 0 01-.794.559 6.031 6.031 0 00-1.749 1.801 5.825 5.825 0 01-1.241 1.717c-.906.672-2.403.599-2.851 1.639-.447 1.04.705 2.237.436 3.356-.218.917-1.24 1.337-1.945 1.963-.905.8-1.319 2.002-1.676 3.154a10.481 10.481 0 01-4.48-.128 10.478 10.478 0 01-4.016-1.991c1.235 3.054 1.263 6.426 1.319 9.726 0 1.068 0 2.271-.782 3.015 3.538.078 6.986 1.034 10.435 1.817 1.509.341 3.146.638 4.549 0a7.31 7.31 0 002.085-1.678c1.878-1.907 3.845-3.982 4.303-6.627.257-1.477 0-2.998.079-4.475a25.536 25.536 0 011.117-5.458 64.644 64.644 0 001.996-11.231c.201-2.338 2.235-4.223 3.286-6.32 2.012-3.949 4.063-8.065 4.214-12.5.073-1.466-.43-3.261-1.9-3.423z" fill="#000"/><path d="M392.162 218.053c-3.8-1.812-6.584-5.184-9.658-8.076-5.868-5.515-13.05-9.418-19.221-14.592-4.091-3.423-7.746-7.416-12.24-10.285a30.457 30.457 0 00-13.095-4.587 3.593 3.593 0 00-1.604.079 3.799 3.799 0 00-1.492 1.18 46.81 46.81 0 00-5.287 7.271c-7.825 13.283-18.936 24.469-28.141 36.813a1.677 1.677 0 00-.112 2.237l1.872 3.669c1.045 2.058 2.728 4.474 4.986 4.043 1.034-.19 1.855-.95 2.615-1.677l8.384-8.038 8.814-8.434c5.164-4.938 10.412-9.994 13.783-16.309 2.626 4.564 7.299 7.551 10.501 11.745 1.219 1.589 2.236 3.356 3.298 5.034 1.744 2.696 3.728 5.23 5.706 7.758l10.111 12.914c1.375 1.756 2.795 3.557 4.678 4.748 2.398 1.516 5.31 1.919 8.127 2.17 3.798.339 7.611.478 11.424.414 2.906-.05 5.902-.24 8.512-1.532 2.61-1.292 4.75-3.915 4.616-6.869a10.184 10.184 0 00-1.458-4.278c-3.589-6.656-8.311-12.165-15.119-15.398z" fill="#2F2E41"/><path d="M401.82 156.078c1.886 0 3.415-1.54 3.415-3.44s-1.529-3.44-3.415-3.44c-1.886 0-3.415 1.54-3.415 3.44s1.529 3.44 3.415 3.44z" fill="#E8E8F0"/><path d="M401.065 150.054a6.52 6.52 0 01.375 4.933 19.207 19.207 0 01-2.197 4.553 22.659 22.659 0 01-2.856 4.077c5.271.257 10.385-1.812 15.035-4.323 3.745-2.014 7.478-4.508 9.501-8.278a4.372 4.372 0 01-1.815.051 4.37 4.37 0 01-1.678-.694 12.936 12.936 0 01-2.671-2.495l-2.65-2.981a11.813 11.813 0 01-1.626-2.136 5.997 5.997 0 01-.699-3.457 19.573 19.573 0 01-3.504 2.909c-1.889 1.23-3.974 2.125-5.869 3.355-.67.431-2.168 1.119-1.782 2.008.385.89 1.917 1.538 2.436 2.478z" fill="#FBBEBE"/><path opacity=".1" d="M401.065 150.054a6.52 6.52 0 01.375 4.933 19.207 19.207 0 01-2.197 4.553 22.659 22.659 0 01-2.856 4.077c5.271.257 10.385-1.812 15.035-4.323 3.745-2.014 7.478-4.508 9.501-8.278a4.372 4.372 0 01-1.815.051 4.37 4.37 0 01-1.678-.694 12.936 12.936 0 01-2.671-2.495l-2.65-2.981a11.813 11.813 0 01-1.626-2.136 5.997 5.997 0 01-.699-3.457 19.573 19.573 0 01-3.504 2.909c-1.889 1.23-3.974 2.125-5.869 3.355-.67.431-2.168 1.119-1.782 2.008.385.89 1.917 1.538 2.436 2.478z" fill="#000"/><path d="M401.138 150.574c-.989 1.678-1.202 3.636 0 5.157.151.19.704 1.365.945 1.376a.933.933 0 00.603-.308c1.28-1.169 2.236-2.662 3.354-3.988 1.117-1.325 2.543-2.528 4.253-2.796 2.062-.319 4.058.772 5.863 1.829.785.383 1.47.944 2.001 1.638.38.689.605 1.453.659 2.238.621 4.703.609 9.469.593 14.211 0 3.434 0 6.885-.671 10.252-.335 1.745-.838 3.451-1.079 5.207a35.208 35.208 0 00-.206 4.671v6.532a16.648 16.648 0 00.251 3.58c.307 1.431.984 2.751 1.436 4.144.468 1.601.788 3.241.956 4.899l.894 6.762c.28 2.131.487 4.475-.799 6.153-.559.771-1.347 1.392-1.934 2.164-2.235 2.875-1.503 6.986-2.425 10.504a13.145 13.145 0 01-4.282 6.571c-1.581 1.343-3.621 2.394-5.65 2.02-2.744-.509-4.393-3.356-5.142-6.08-.749-2.724-1.017-5.649-2.638-7.931-1.325-1.868-3.353-3.042-5.231-4.374-1.878-1.331-3.667-3.048-4.069-5.307-.179-.985-.067-1.997-.173-2.993a7.086 7.086 0 00-4.371-5.744c-1.403-.559-3.136-.743-3.912-2.03 2.045-1.152 3.398-3.283 4.113-5.526.715-2.242.861-4.625 1-6.974l.47-7.858c.207-3.513.302-6.991 1.85-10.146.687-1.415 1.548-2.735 2.269-4.127a46.469 46.469 0 002.431-6.058c1.118-3.221 2.236-6.443 3.242-9.704.4-1.575.998-3.093 1.777-4.519.794-1.364 2.035-3.148 3.622-3.445z" fill="#9AE6B4"/><path d="M383.7 201.627l2.079.073.442-3.138a6.56 6.56 0 01.436-1.835c.344-.619.744-1.205 1.196-1.75 2.045-2.892 1.894-6.712 2.403-10.241.676-4.687 2.633-9.072 4.566-13.384l4.047-8.999a9.856 9.856 0 001.118-4.967c.039-1.392.447-6.448.486-7.83 0-.514-1.118-.229-1.369-.688-.503-1.001-1.196 1.712-2.141 2.305-.945.592-1.47 1.677-1.867 2.718-.872 2.265-1.403 4.648-2.235 6.935-.833 2.288-1.94 4.536-3.767 6.152-.828.727-1.778 1.298-2.56 2.075-2.51 2.484-2.756 6.404-2.845 9.945-.045 2.075-.47 22.629.011 22.629zM413.613 146.821c-2.018.794-3.124 2.987-3.689 5.09-.564 2.103-.799 4.351-1.883 6.236-2.538 4.413-8.999 5.699-10.782 10.47-.559 1.561-.559 3.272-.721 4.933-.324 3.417-1.447 6.712-1.777 10.135a44.704 44.704 0 00.184 7.964l2.236 26.952c.33 3.916.319 8.071-.676 11.852 2.286.442 4.667-.151 6.785-1.119 2.118-.967 4.058-2.298 6.098-3.422 3.509-1.941 7.383-3.312 10.457-5.895a6.042 6.042 0 001.408-1.561c.615-1.063.671-2.355.961-3.551a19.41 19.41 0 011.012-2.797 83.38 83.38 0 002.94-8.311 45.191 45.191 0 001.347-5.705c.246-1.532.38-3.087.514-4.637a27.867 27.867 0 011.431-7.125 57.218 57.218 0 003.303-17.07 8.786 8.786 0 00-.173-2.511c-.345-1-.803-1.957-1.364-2.852-.939-1.768-1.504-3.714-2.387-5.515-2-4.055-5.538-7.137-9.238-9.715-1.8-1.259-3.924-2.651-5.986-1.846z" fill="#2F2E41"/><path d="M366.402 190.793a16.243 16.243 0 01-4.298-3.272c-.559-.66-1.028-1.404-1.604-2.052a10.528 10.528 0 00-5.41-3.088 26.443 26.443 0 00-6.266-.609 11.496 11.496 0 00-4.169.503 4.195 4.195 0 00-2.761 2.97c-.307 1.678.788 3.305 2.101 4.385a10.143 10.143 0 004.203 2.041c1.256.218 2.523.365 3.795.442 7.479.783 14.152 4.855 20.68 8.563a270.017 270.017 0 0017.6 9.139c.235-1.793.334-3.601.296-5.408-.033-1.348-.101-3.407-1.375-4.201-1.481-.923-3.912-1.118-5.589-1.678a90.073 90.073 0 01-11.262-4.558 95.364 95.364 0 01-5.941-3.177zM412.323 138.814c1.882-7.161-2.363-14.484-9.48-16.356-7.117-1.873-14.411 2.414-16.293 9.575-1.881 7.161 2.364 14.484 9.481 16.356 7.116 1.873 14.411-2.415 16.292-9.575z" fill="#FBBEBE"/><path d="M417.424 162.023c-1.19 1.387-1.788 3.177-2.587 4.821-1.643 3.389-4.226 6.298-5.517 9.844-1.363 3.736-1.319 8.177-3.99 11.113-.464.509-1.023 1.001-1.157 1.678-.019.411-.065.82-.14 1.225-.38 1.062-2.124 1.118-2.448 2.203-.095.319-.045.666-.162.979-.268.699-1.19.806-1.811 1.231-1.297.878-1.034 2.914-1.956 4.183a3.5 3.5 0 01-3.353 1.163 11.879 11.879 0 01-3.455-1.292 3.172 3.172 0 00-1.24-.385 2.604 2.604 0 00-1.437.486c-2.459 1.566-3.616 4.67-3.599 7.601.017 2.931 1.023 5.75 2.051 8.49.142.462.374.892.682 1.264.816.861 2.236.727 3.32.246 1.084-.481 2.068-1.236 3.23-1.448 2.063-.375 4.08 1.046 6.148.928 1.532-.089 2.89-.979 4.159-1.84 2.034-1.376 4.102-2.796 5.589-4.743.916-1.197 1.587-2.556 2.386-3.837a44.393 44.393 0 013.354-4.474l7.679-9.407a20.29 20.29 0 002.068-2.858 20.094 20.094 0 001.61-4.296c.732-2.511 1.47-5.033 1.592-7.657a30.22 30.22 0 00-.558-6.415 22.263 22.263 0 00-1.677-6.107c-1.582-3.49-5.645-6.359-8.781-2.696z" fill="#2F2E41"/><path d="M440.653 156.038c.615-2.295.676-4.704.178-7.028a15.002 15.002 0 00-3.04-6.339c2.04-8.708-2.403-17.427-10.228-20.655.28-8.165-4.89-15.66-12.855-17.763-8.277-2.176-16.767 2.198-20.338 9.972-5.03-2.612-10.351-2.332-12.106.739-1.833 3.21.922 8.26 6.148 11.275a16.387 16.387 0 005.326 1.974 17.331 17.331 0 009.641 10.213 17.782 17.782 0 002.267 9.456c1.619 2.88 3.64-6.807 6.532-5.211.316 2.295 1.531 16.543 2.843 18.452-.154.4-2.476-9.174-.391 1.224-1.643 6.237 1.083-13.717 7.103-12.135 6.019 1.583 13.062 24.11 14.7 17.874.44-1.663.516-3.401.223-5.095a15.161 15.161 0 003.997-6.953z" fill="#3F3D56"/><path opacity=".1" d="M385.712 116.586c1.755-3.071 7.07-3.356 12.106-.739 3.56-7.774 12.061-12.153 20.339-9.972.374.095.743.213 1.118.336a16.877 16.877 0 00-4.561-1.958c-8.278-2.176-16.767 2.198-20.339 9.972-5.03-2.612-10.351-2.332-12.106.739-1.833 3.21.923 8.26 6.148 11.275a17.477 17.477 0 003.085 1.398c-4.996-3.053-7.578-7.919-5.79-11.051zM418.084 163.969c.107-.415.238-.824.391-1.225a14.882 14.882 0 01-2.476-6.398 17.775 17.775 0 01-9.166-16.298 17.32 17.32 0 01-9.641-10.213 15.366 15.366 0 01-3.191-.934 17.266 17.266 0 009.373 9.508 17.778 17.778 0 009.166 16.304 14.867 14.867 0 002.476 6.393c-.154.4-.285.809-.391 1.225-1.638 6.213 1.889 12.533 7.875 14.144a11.65 11.65 0 01-4.159-5.563 11.668 11.668 0 01-.257-6.943z" fill="#000"/><path d="M405.184 140.037c.902-.685.89-2.22-.027-3.428-.916-1.208-2.391-1.631-3.293-.945-.902.685-.89 2.22.027 3.428.916 1.208 2.391 1.631 3.293.945z" fill="#FBBEBE"/><path d="M241.336 22.003c5.028 0 9.104-4.08 9.104-9.111 0-5.032-4.076-9.111-9.104-9.111-5.029 0-9.105 4.079-9.105 9.11 0 5.033 4.076 9.112 9.105 9.112z" fill="#3F3D56"/><path d="M261.093 66.22c14.103 0 25.536-14.823 25.536-33.11 0-18.286-11.433-33.11-25.536-33.11-14.103 0-25.536 14.824-25.536 33.11 0 18.287 11.433 33.11 25.536 33.11z" fill="#3F3D56"/><path opacity=".1" d="M261.093 56.22c-12.793 0-23.39-12.198-25.251-28.11a43.067 43.067 0 00-.291 5c0 18.284 11.435 33.11 25.542 33.11 14.107 0 25.536-14.826 25.536-33.11 0-1.67-.097-3.34-.29-5-1.856 15.935-12.453 28.11-25.246 28.11z" fill="#000"/><path d="M315.508 130.081c-.559 2.238-2.912 4.061-5.528 5.319-5.51 2.657-12.296 3.446-18.885 3.714a31.64 31.64 0 01-5.03-.095c-3.449-.408-6.646-1.879-8.641-3.977a1.595 1.595 0 01-.559-.906 1.61 1.61 0 01.559-1.118c3.516-3.837 9.373-6.197 15.253-7.875 4.471-1.292 12.262-4.637 17.141-4.184 4.74.409 6.383 6.27 5.69 9.122z" fill="#3F3D56"/><path opacity=".1" d="M315.508 130.081c-.559 2.238-2.912 4.061-5.528 5.319-5.51 2.657-12.296 3.446-18.885 3.714a31.64 31.64 0 01-5.03-.095c-3.449-.408-6.646-1.879-8.641-3.977a1.595 1.595 0 01-.559-.906 1.61 1.61 0 01.559-1.118c3.516-3.837 9.373-6.197 15.253-7.875 4.471-1.292 12.262-4.637 17.141-4.184 4.74.409 6.383 6.27 5.69 9.122z" fill="#000"/><path d="M245.5 113.224a13.954 13.954 0 00-.844 10.627 18.58 18.58 0 006.231 8.826c7.138 5.732 16.93 6.521 26.057 6.448a201.407 201.407 0 0023.932-1.644c2.644-.341 5.315-.744 7.763-1.801 2.979-1.292 5.589-3.658 6.657-6.712 1.067-3.053.313-6.834-2.236-8.881-2.236-1.801-5.27-2.047-8.115-2.237l-16.292-.979c1.609-1.633 3.75-2.556 5.712-3.736 2.599-1.577 4.326-4.217 6.22-6.594 2.795-3.558 6.148-6.667 9.502-9.76.559 3.042 2.453 5.543 4.717 7.645 2.263 2.103 4.874 3.793 7.232 5.789 5.701 4.844 9.803 11.421 15.8 15.895a30.932 30.932 0 0011.329-5.66l-2.33-4.222a2.791 2.791 0 00-.878-1.119c-.665-.403-1.514-.196-2.28-.308-2.046-.307-2.94-2.673-3.745-4.58-2.202-5.246-6.427-9.313-10.06-13.709a68.667 68.667 0 01-7.014-10.386c-1.213-2.187-2.32-4.474-3.969-6.359-1.648-1.885-3.945-3.356-6.449-3.356-2.236 0-4.248 1.119-6.148 2.237a162.884 162.884 0 00-16.678 11.371c-2.795 2.159-5.55 4.446-8.814 5.772-1.375.56-2.795.94-4.141 1.616-2.309 1.192-4.064 3.205-5.953 4.989-6.729 6.371-15.945 10.498-25.206 10.828z" fill="#605D82"/><path d="M279.57 67.865a16.628 16.628 0 01-1.224 5.677 7.072 7.072 0 01-4.068 3.915 8.723 8.723 0 01-3.969.129 7.668 7.668 0 01-3.236-1.119c-1.526-1.051-2.286-2.925-2.565-4.76-.28-1.834-.151-3.708-.33-5.553a30.573 30.573 0 00-.849-4.419c-.118-.48-.241-.962-.364-1.443-.123-.48-.229-.962-.335-1.443-.106-.48-.19-.9-.268-1.359a15.388 15.388 0 01-.162-1.157 13.12 13.12 0 00-.559-3.401 10.223 10.223 0 00-1.191-2.014c-.201-.29-.397-.559-.559-.878a4.166 4.166 0 01-.687-2.645 2.224 2.224 0 01.168-.582 1.275 1.275 0 00.866-.81c.076-.422.04-.856-.106-1.26a7.83 7.83 0 00-.677-1.616c-.184-.335-.816-.945-.821-1.33 0-.778 1.509-1.404 2.124-1.712a11.812 11.812 0 016.069-1.23c1.342.089 2.795.503 3.538 1.633.671 1.012.559 2.326.867 3.506a.973.973 0 00.206.47c.146.133.33.217.526.24.327.067.663.08.995.04.088-.005.176-.018.262-.04a3.518 3.518 0 001.431-.615c.279-.078.559-.134.833-.184h.033c1.118 3.512 1.258 7.27 2.169 10.861.453 1.779 1.118 3.535 1.19 5.37v.24c0 .593-.033 1.186 0 1.773.011.263.04.525.09.783.101.417.224.827.369 1.23.039.13.078.258.111.392.028.094.05.19.068.285.163 1.001.182 2.02.055 3.026z" fill="#FBBEBE"/><path d="M263.988 44.89c7.235 0 13.101-5.87 13.101-13.11 0-7.241-5.866-13.11-13.101-13.11-7.235 0-13.101 5.869-13.101 13.11 0 7.24 5.866 13.11 13.101 13.11zM347.17 103.213a21.532 21.532 0 00-3.694-9.95l1.022 6.068a2.272 2.272 0 01-2.375-.732 7.258 7.258 0 01-1.246-2.316 47.574 47.574 0 00-5.796-10.403c-8.339-.699-16.588-4.155-23.921-8.194-7.333-4.038-14.202-8.864-21.445-13.065a31.467 31.467 0 00-3.913-2.002c-2.263-.906-4.806-1.376-6.953-2.444l-.43-.23a8.674 8.674 0 01-1.375-.917 7.521 7.521 0 01-.654-.61 14.407 14.407 0 01-2.515-4.2c-1.151-2.55-1.565-5.632-2.711-8.182a8.105 8.105 0 011.761-1.247l.279-.14a8.583 8.583 0 011.414-.515c.28-.078.559-.134.833-.184h.034a8.218 8.218 0 013.879.307c1.822.621 3.353 1.852 4.896 3.02 2.431 1.84 4.957 3.574 7.165 5.683 1.263 1.214 2.42 2.545 3.778 3.646a29.972 29.972 0 003.571 2.372l22.1 13.171c2.492 1.483 4.991 2.97 7.427 4.547 3.706 2.389 7.266 4.978 10.843 7.568l6.31 4.575a6.936 6.936 0 011.789 1.678c.432.741.701 1.567.788 2.422a22.182 22.182 0 01-.861 10.274z" fill="#FBBEBE"/><path d="M282.823 77.726c-.888 3.965-4.89 6.364-6.986 9.849-2.605 4.323-1.543 9.351-.559 14.307l-5.36 4.619c-.984.845-1.973 1.678-3.029 2.445a40.843 40.843 0 01-4.846 2.796l-4.739 2.439a22.738 22.738 0 01-4.645 1.968c-3.119.8-6.427.241-9.501-.682a4.246 4.246 0 01-1.04-.425 1.698 1.698 0 01-.492-.448 2.737 2.737 0 01-.313-1.795c.313-5.19 1.582-10.274 2.845-15.319a59.807 59.807 0 012.688-8.893 59.964 59.964 0 013.818-7.17c1.676-2.836 3.353-5.694 5.589-8.127.956-1.051 2.023-2.047 2.593-3.355.788-1.801.481-3.865.643-5.823a12.091 12.091 0 011.151-4.245c.343-.717.755-1.399 1.23-2.036.218.504.43 1.007.648 1.505l.419.984c.185.42.364.845.559 1.264.522 1.2 1.04 2.403 1.554 3.608a15.105 15.105 0 002.353 4.2c1.068 1.208 2.638 2.086 4.236 1.913a5.125 5.125 0 003.611-2.517 14.848 14.848 0 001.604-4.245c.44-1.812.501-3.695.179-5.532-.559-3.54-2.04-7.153-3.13-10.442a10.562 10.562 0 01-.76-3.44 1.893 1.893 0 01.039-.396v-.101a8.55 8.55 0 011.414-.515c.28-.078.559-.134.833-.184.961 5.22 1.924 10.429 2.889 15.627 0 .123.051.246.073.369.134.75.274 1.493.43 2.237.157.744.291 1.348.459 2.013.056.224.117.453.179.677.173.615.363 1.22.558 1.824 1.364 3.652 3.639 7.293 2.806 11.046z" fill="#9AE6B4"/><path d="M335.998 133.471c-.049.77.099 1.54.43 2.237.816 1.499 2.794 1.84 4.471 1.98 9.946.82 19.952.516 29.829-.906a3.483 3.483 0 001.52-.476c1.403-.984.559-3.383-.995-4.155-1.553-.772-3.353-.559-5.03-.912a15.972 15.972 0 01-4.717-2.047 219.563 219.563 0 01-10.06-6.152c-1.973-1.27-4.304-2.623-6.523-1.868-6.03 2.036-8.97 5.805-8.925 12.299z" fill="#2F2E41"/><path d="M262.68 58.586l-.05.275-.084.458a58.55 58.55 0 01-1 4.212c-1.068 3.853-2.493 7.65-3.913 11.387l-11.407 30.09c-.961 2.528-1.917 5.034-3.007 7.528-.363.822-.738 1.678-1.118 2.495-1.335 3.003-2.621 6.107-3.046 9.312-.279 2.12-.559 4.284-.139 6.382.419 2.097 1.676 4.15 3.694 4.921.972.381 2.364.89 2.096 1.902-.14.559-.771.828-1.342.917a5.125 5.125 0 01-4.208-1.213c-1.062-.94-1.884-2.411-3.298-2.568-.978-.106-1.878.481-2.794.89-3.661 1.678-7.92.503-11.765-.688.302-1.555 1.867-2.584 3.415-2.892 1.548-.307 3.158-.095 4.745-.134a2.462 2.462 0 001.442-.375c.389-.348.667-.803.799-1.308a55.818 55.818 0 002.264-9.285c.514-3.3.726-6.644 1.453-9.899.559-2.54 1.442-5 2.191-7.495a157.277 157.277 0 003.571-15.593 55.031 55.031 0 001.006-6.611c.129-1.846.067-3.703.246-5.537.297-2.39.794-4.752 1.487-7.059.682-2.522 1.358-5.033 2.04-7.55 1.006-3.725 2.084-7.59 4.633-10.481a9.84 9.84 0 017.076-3.384 6.76 6.76 0 011.503.162l.246.062c.54.139 1.057.354 1.537.637.788-.503 1.185-.324 1.71.442.456.819.672 1.75.621 2.685a37.227 37.227 0 01-.604 7.315z" fill="#FBBEBE"/><path d="M263.541 61.556l-.034.034-.178.179-1.783 1.784-.878-3.68-3.001-12.607a6.754 6.754 0 011.503.163c.022-.145.057-.288.107-.426l.139.487 1.017 3.462 1.929 6.572.318 1.085.861 2.947z" fill="#9AE6B4"/><path d="M273.551 12.444h-15.012a6.71 6.71 0 00-6.707 6.712v4.357a6.71 6.71 0 006.707 6.711h15.012a6.71 6.71 0 006.707-6.711v-4.357a6.71 6.71 0 00-6.707-6.712z" fill="#3F3D56"/><path d="M281.918 22.003c5.028 0 9.104-4.08 9.104-9.111 0-5.032-4.076-9.111-9.104-9.111-5.029 0-9.105 4.079-9.105 9.11 0 5.033 4.076 9.112 9.105 9.112z" fill="#3F3D56"/><path opacity=".1" d="M281.7 3.775h-.335a9.113 9.113 0 010 18.205h.335c2.415 0 4.73-.96 6.438-2.668a9.116 9.116 0 000-12.885 9.102 9.102 0 00-6.438-2.669v.017zM241.336 3.775h.335a9.113 9.113 0 000 18.205h-.335a9.104 9.104 0 01-9.105-9.11 9.127 9.127 0 012.667-6.443 9.103 9.103 0 016.438-2.669v.017zM280.537 28.44h-23.071a2.663 2.663 0 01-2.666-2.662v1.773a2.675 2.675 0 002.666 2.668h23.094a2.676 2.676 0 002.666-2.668v-1.773a2.685 2.685 0 01-.793 1.89 2.657 2.657 0 01-1.896.772z" fill="#000"/><path d="M358.806 121.703s1.442.252 1.677-.917c.118-.559-.279-4.15-.732-7.741a446.44 446.44 0 00-.643-4.938c-.229-1.729-.397-2.92-.397-2.92l-.262-.872-1.554-5.224-1.464-4.922-1.079-1.935-7.763 3.78-4.829 8.351 1.498.945.262.168 2.756 2.886 7.724 8.11 3.476 3.652.408.425.922 1.152z" fill="#FFE09C"/><path d="M352.703 88.912s-8.506 3.993-10.552 8.333c0 0-1.911 3.652-2.152 5.593 0 0-.559 1.773 2.968 2.209 0 0 1.604-6.516 6.416-9.346l4.818-2.824-1.498-3.965z" fill="#E7C4C3"/><path d="M354.92 98.936c.415-1.549-.312-3.09-1.623-3.441-1.312-.352-2.711.618-3.126 2.167-.415 1.55.312 3.091 1.623 3.442 1.311.352 2.711-.619 3.126-2.168zM353.997 109.062c.411-1.543-.315-3.076-1.622-3.424-1.306-.349-2.698.62-3.109 2.163-.411 1.543.315 3.076 1.621 3.425 1.307.348 2.699-.62 3.11-2.164zM346.276 108.364a3.026 3.026 0 001.805-2.097c.414-1.544-.313-3.082-1.621-3.429s-2.699.621-3.107 2.165c-.032.104-.057.21-.073.318l.263.168 2.733 2.875zM356.666 104.633a2.226 2.226 0 001.805-.318l-1.554-5.224a3.01 3.01 0 00-1.878 2.119c-.408 1.561.319 3.077 1.627 3.423zM357.566 113.672a2.356 2.356 0 002.207-.627 448.15 448.15 0 00-.642-4.938h-.073c-1.308-.353-2.699.62-3.113 2.164-.414 1.544.319 3.054 1.621 3.401zM357.476 120.109c.161-.271.283-.562.364-.867.413-1.543-.313-3.076-1.621-3.423a2.366 2.366 0 00-2.236.638l3.493 3.652z" fill="#FF7F8E"/><path d="M353.637 96.72l.894.24a5.115 5.115 0 00-.609 2.097 1.176 1.176 0 000 .146c.117.922-.895-.24-.895-.24s.174-1.897.61-2.244zM349.562 102.491l.9.241a5.006 5.006 0 00-.609 2.092 1.17 1.17 0 000 .145c.117.923-.895-.241-.895-.241s.168-1.896.604-2.237zM352.346 104.398l.894.235a5.12 5.12 0 00-.609 2.098 1.17 1.17 0 000 .145c.123.923-.895-.24-.895-.24s.185-1.896.61-2.238zM355.923 109.214l.899.235a5.032 5.032 0 00-.609 2.097 1.185 1.185 0 000 .146c.117.923-.894-.241-.894-.241s.173-1.896.604-2.237zM358.153 117.139l.894.241a5.105 5.105 0 00-.609 2.092 1.17 1.17 0 000 .145c.123.923-.895-.235-.895-.235s.174-1.902.61-2.243zM353.301 111.597l.895.24a5.02 5.02 0 00-.598 2.12 1.17 1.17 0 000 .145c.117.923-.895-.235-.895-.235s.168-1.929.598-2.27z" fill="#94CC79"/><path d="M355.47 89.65s-1.28-2.903-2.795-.739a10.274 10.274 0 001.677 4.922s4.633 12.613 4.248 14.542c0 0 1.827 12.182 1.375 12.864 0 0 .503.861.86-2.377.358-3.238-1.212-12.752-1.212-12.752l-2.298-9.888-1.537-3.356-.318-3.216z" fill="#E7C4C3"/><path opacity=".2" d="M355.47 89.65s-1.28-2.903-2.795-.739a10.274 10.274 0 001.677 4.922s4.633 12.613 4.248 14.542c0 0 1.827 12.182 1.375 12.864 0 0 .503.861.86-2.377.358-3.238-1.212-12.752-1.212-12.752l-2.298-9.888-1.537-3.356-.318-3.216z" fill="#fff"/><path d="M340.1 94.46s2.297 6.622 4.398 4.86l-1.676-8.652-2.722 3.792z" fill="#FBBEBE"/><path d="M182.991 121.658s20.261 34.157 24.995 38.721c0 0 20.243 21.029 9.954 19.575-.755-.106-15.571-12.64-16.438-14.698-.866-2.059-28.878-38.474-28.878-38.474l3.996-3.681 6.371-1.443z" fill="#A0616A"/><path opacity=".1" d="M182.991 121.658s20.261 34.157 24.995 38.721c0 0 20.243 21.029 9.954 19.575-.755-.106-15.571-12.64-16.438-14.698-.866-2.059-28.878-38.474-28.878-38.474l3.996-3.681 6.371-1.443z" fill="#000"/><path d="M201.519 233.21s-6.483 8.11-3.778 11.354c2.705 3.244 16.18 9.447 20.529 9.189 4.594-.268 19.992.56 20.534-6.488 0 0 1.078-3.243-12.967-3.786-14.045-.542-9.73-15.14-9.73-15.14l-14.588 4.871z" fill="#2F2E41"/><path d="M124.256 164.54s-6.483 22.165 12.967 25.951l21.07-1.079s29.717-5.951 37.827-1.622c0 0 3.242.559 2.158 4.866-1.085 4.306 1.62 33.524 1.62 33.524v9.732s18.372 0 20.535-2.165c0 0-1.621-8.652 0-15.66 1.62-7.008-2.7-29.201-2.7-29.201l-.43-13.317a9.303 9.303 0 00-4.902-8.009 7.272 7.272 0 00-3.314-.845s-36.743-5.945-49.709-4.865c-12.967 1.079-35.122 2.69-35.122 2.69z" fill="#605D82"/><path d="M160.456 93.705s9.725 11.353 10.804 15.14c1.079 3.786 12.989 13.501 12.989 13.501s-8.646 6.488-7.025 9.732c1.62 3.244-11.346-10.811-11.346-10.811l-15.163-22.154 9.741-5.408z" fill="#9AE6B4"/><path opacity=".1" d="M160.456 93.705s9.725 11.353 10.804 15.14c1.079 3.786 12.989 13.501 12.989 13.501s-8.646 6.488-7.025 9.732c1.62 3.244-11.346-10.811-11.346-10.811l-15.163-22.154 9.741-5.408z" fill="#000"/><path d="M166.923 80.729s-4.863 15.66-4.863 21.628-20.534-1.622-19.992-4.866c.542-3.244 11.888-15.14 12.43-20.006.543-4.866 12.425 3.244 12.425 3.244z" fill="#A0616A"/><path opacity=".1" d="M150.715 91.54s-18.914-4.866-21.613 22.713c-2.7 27.579 2.157 30.818-5.947 47.58-8.104 16.762 55.114 2.164 55.114 2.164s-3.242-3.786-13.509-2.164l-4.863-14.598s-1.62-6.488 7.568-6.488c9.188 0 4.863-18.926 4.863-18.926s-4.863-16.22-7.568-17.842c-2.705-1.622-7.545-11.354-14.045-12.439z" fill="#000"/><path d="M150.715 90.466s-18.914-4.865-21.613 22.708c-2.7 27.573 2.157 30.823-5.947 47.585s55.114 2.164 55.114 2.164-3.242-3.786-13.509-2.164l-4.863-14.598s-1.604-6.476 7.585-6.476c9.188 0 4.862-18.927 4.862-18.927s-4.862-16.22-7.567-17.842c-2.705-1.622-7.562-11.376-14.062-12.45z" fill="#9AE6B4"/><path d="M162.077 90.46c9.847 0 17.829-7.987 17.829-17.84 0-9.854-7.982-17.842-17.829-17.842-9.847 0-17.829 7.988-17.829 17.841 0 9.854 7.982 17.842 17.829 17.842z" fill="#A0616A"/><path d="M158.634 163.975l44.808 26.801 41.689-38.871-49.698-17.321-35.765 24.363-1.034 5.028zM211.512 88.95l-13.944 41.501 46.232 13.305 19.735-56.12-52.023 1.315z" fill="#DADAE5"/><path opacity=".03" d="M207.79 85.886l3.784 3.462 52.023-1.314 1.196-3.401-57.003 1.253zM194.058 128.062l13.732-42.176 3.784 3.462-13.593 40.459-3.923-1.745z" fill="#000"/><path d="M207.729 85.489l3.783 3.462 52.023-1.315 1.196-3.4-57.002 1.253z" fill="#EFF0F4"/><path d="M193.996 127.671l13.733-42.182 3.783 3.462-13.592 40.459-3.924-1.739z" fill="#EFF0F4"/><path opacity=".03" d="M207.729 85.489l5.784 5.414 52.029-1.315-.811-5.352-57.002 1.253z" fill="#000"/><path opacity=".03" d="M193.996 127.671l13.733-42.182 5.784 5.414-13.592 40.459-5.925-3.691z" fill="#000"/><path opacity=".03" d="M194.086 128.264l1.263 8.026 50.005 17.371-1.459-9.312-49.809-16.085z" fill="#000"/><path opacity=".03" d="M157.12 154.64l36.966-26.376 1.615 8.02-36.312 27.025-2.269-8.669z" fill="#000"/><path d="M193.996 127.671l1.085 6.918 50.005 17.372-1.286-8.205-49.804-16.085z" fill="#EFF0F4"/><path d="M157.025 154.042l36.971-26.371 1.437 6.913-36.312 27.025-2.096-7.567z" fill="#EFF0F4"/><path opacity=".03" d="M193.996 127.671l1.085 6.918 50.005 17.372-1.286-8.205-49.804-16.085z" fill="#000"/><path opacity=".03" d="M157.025 154.042l36.971-26.371 1.437 6.913-36.312 27.025-2.096-7.567z" fill="#000"/><path d="M157.025 154.042l1.671 9.972 44.684 26.718-1.101-10.263-45.254-26.427z" fill="#CCCAD6"/><path d="M177.386 152.465s-.777 1.482.408 2.164c.558.324 4.599 1.119 8.657 1.879 1.99.369 3.985.727 5.589 1.007 1.956.347 3.309.559 3.309.559h1.028l6.215.118 5.846.112 2.476-.509-1.425-9.721-7.4-8.138-1.548 1.309-.263.224-4.068 1.98-11.48 5.593-5.165 2.517-.603.296-1.576.61z" fill="#FFE09C"/><path d="M215.095 157.157s-1.392-10.627-5.405-14.352c0 0-3.297-3.355-5.326-4.273 0 0-1.727-1.224-3.426 2.467 0 0 6.522 3.993 7.931 10.207l1.403 6.214 4.823-.263z" fill="#E7C4C3"/><path d="M207.251 153.364c.831-1.302.26-3.152-1.275-4.133-1.534-.981-3.452-.721-4.283.58-.831 1.302-.26 3.152 1.275 4.133 1.534.981 3.452.722 4.283-.58zM197.056 151.056c.831-1.301.26-3.152-1.275-4.133-1.535-.981-3.452-.721-4.283.58-.831 1.302-.26 3.152 1.274 4.133 1.535.982 3.453.722 4.284-.58zM196.21 143.454a3.435 3.435 0 001.676 2.69c1.532.979 3.449.722 4.276-.559.827-1.281.263-3.149-1.274-4.127a3.723 3.723 0 00-.325-.185l-.262.224-4.091 1.957zM196.657 156.033a2.57 2.57 0 00-.285 2.075l6.215.117a3.409 3.409 0 00-1.677-2.796c-1.509-.957-3.426-.694-4.253.604zM186.529 153.891a2.68 2.68 0 00-.078 2.617c1.99.369 3.985.727 5.589 1.007l.05-.073c.828-1.297.258-3.149-1.274-4.127-1.531-.979-3.454-.722-4.287.576zM179.565 151.57c.24.267.514.5.816.693 1.532.979 3.449.722 4.276-.559a2.674 2.674 0 00.073-2.629l-5.165 2.495z" fill="#FF7F8E"/><path d="M206.292 155.474l-.559.889a5.768 5.768 0 00-2.062-1.382l-.162-.039c-1.045-.19.559-.889.559-.889s2.006.833 2.224 1.421zM201.435 149.053l-.559.895a5.734 5.734 0 00-2.062-1.387l-.162-.04c-1.04-.184.559-.889.559-.889s2.006.834 2.224 1.421zM198.406 151.43l-.559.889a5.762 5.762 0 00-2.062-1.381l-.162-.04c-1.045-.19.559-.889.559-.889s2 .822 2.224 1.421zM191.94 153.667l-.559.895a5.75 5.75 0 00-2.063-1.387l-.162-.039c-1.045-.185.559-.89.559-.89s2.001.811 2.225 1.421zM182.572 153.331l-.559.895a5.782 5.782 0 00-2.068-1.387l-.162-.039c-1.039-.184.559-.889.559-.889s2.001.828 2.23 1.42zM190.257 149.976l-.559.889a5.747 5.747 0 00-2.062-1.387l-.162-.039c-1.045-.185.559-.89.559-.89s2.001.834 2.224 1.427z" fill="#94CC79"/><path d="M213.312 159.914s3.594-.391 1.761-2.757a11.645 11.645 0 00-5.914.101s-15.297.682-17.281-.414c0 0-13.861-2.237-14.42-2.942 0 0-1.118.246 2.281 1.756 3.398 1.51 14.268 3.087 14.268 3.087l11.531.918 4.147-.515 3.627.766z" fill="#E7C4C3"/><path opacity=".2" d="M213.312 159.914s3.594-.391 1.761-2.757a11.645 11.645 0 00-5.914.101s-15.297.682-17.281-.414c0 0-13.861-2.237-14.42-2.942 0 0-1.118.246 2.281 1.756 3.398 1.51 14.268 3.087 14.268 3.087l11.531.918 4.147-.515 3.627.766z" fill="#fff"/><path d="M202.413 154.428a3.448 3.448 0 00.52 3.115c1.051 1.482 2.923 1.963 4.186 1.074 1.264-.889 1.426-2.797.369-4.307a5.983 5.983 0 00-.229-.296l-.335.112-4.511.302z" fill="#FF7F8E"/><path d="M202.279 180.469l41.521-36.713 1.275 8.105-41.695 38.871-1.101-10.263z" fill="#CCCAD6"/><path d="M249.188 145.848l-5.388-2.092 20.931-59.52 3.991 2.819-19.534 58.793z" fill="#CCCAD6"/><g opacity=".1" fill="#fff"><path opacity=".1" d="M215.492 232.601c.042-1.44.25-2.87.62-4.262l-.274.095a19.035 19.035 0 00-.346 4.167zM218.27 252.663c-4.349.257-17.829-5.951-20.529-9.195a2.842 2.842 0 01-.626-1.533 3.402 3.402 0 00.626 2.618c2.7 3.244 16.18 9.446 20.529 9.189 4.594-.268 19.992.559 20.534-6.488a.885.885 0 00-.073-.559c-1.241 6.477-15.985 5.716-20.461 5.968z"/></g><path d="M234.059 121.44s.961-1.118.089-1.924c-.419-.391-3.705-1.89-7.014-3.355a558.446 558.446 0 00-4.566-1.98l-2.711-1.158-.878-.224-5.281-1.348-4.969-1.269-2.236-.062-.749 8.608 4.69 8.434 1.576-.805.274-.14 3.873-.873 10.943-2.438 4.913-1.119.559-.129 1.487-.218z" fill="#FFE09C"/><path d="M202.805 109.857s-.945 9.352 1.732 13.339c0 0 2.146 3.513 3.689 4.721 0 0 1.23 1.387 3.426-1.421 0 0-4.773-4.72-4.723-10.308l.045-5.593-4.169-.738z" fill="#E7C4C3"/><path d="M212.771 118.866c.969-.943.853-2.636-.259-3.781s-2.8-1.308-3.77-.365c-.969.943-.853 2.635.259 3.78 1.113 1.146 2.8 1.309 3.77.366zM221.015 122.88c.97-.943.854-2.636-.259-3.781-1.112-1.145-2.8-1.308-3.769-.365-.97.943-.854 2.635.259 3.781 1.112 1.145 2.8 1.308 3.769.365zM216.179 125.35a3.027 3.027 0 00-.872-2.629c-1.117-1.118-2.794-1.309-3.772-.363-.978.945-.85 2.634.262 3.78.074.079.153.154.235.224l.274-.14 3.873-.872zM218.342 114.516a2.23 2.23 0 00.654-1.717l-5.282-1.348a3.003 3.003 0 00.856 2.702c1.095 1.152 2.783 1.314 3.772.363zM226.536 118.387a2.372 2.372 0 00.598-2.238c-1.627-.716-3.264-1.42-4.566-1.98l-.062.051c-.967.945-.849 2.64.263 3.786 1.112 1.147 2.8 1.326 3.767.381zM232.013 121.787a3.18 3.18 0 00-.559-.755c-1.118-1.147-2.794-1.309-3.767-.364a2.344 2.344 0 00-.592 2.238l4.918-1.119z" fill="#FF7F8E"/><path d="M209.959 113.062l.665-.643a5.11 5.11 0 001.486 1.594l.129.067c.855.369-.665.643-.665.643s-1.52-1.113-1.615-1.661zM212.843 119.55l.659-.649c.374.635.881 1.18 1.487 1.6l.128.061c.855.375-.665.649-.665.649s-1.542-1.147-1.609-1.661zM215.9 118.112l.665-.648c.374.634.881 1.18 1.487 1.599l.128.062c.855.375-.665.649-.665.649s-1.543-1.113-1.615-1.662zM221.869 117.508l.665-.648a5.11 5.11 0 001.481 1.599l.134.067c.85.369-.665.644-.665.644s-1.542-1.113-1.615-1.662zM229.811 119.667l.665-.648a5.033 5.033 0 001.481 1.599l.134.062c.85.374-.665.648-.665.648s-1.542-1.118-1.615-1.661zM222.568 120.982l.665-.643a5.11 5.11 0 001.486 1.594c.04.027.083.05.129.067.855.369-.665.648-.665.648s-1.543-1.118-1.615-1.666z" fill="#94CC79"/><path d="M204.861 107.855s-3.146-.386-2.056 2.002a10.27 10.27 0 005.069 1.119s13.196 2.494 14.671 3.825c0 0 11.385 4.687 11.737 5.414 0 0 1.001 0-1.593-1.963-2.593-1.963-11.552-5.514-11.552-5.514l-9.658-3.104-3.644-.398-2.974-1.381z" fill="#E7C4C3"/><path opacity=".2" d="M204.861 107.855s-3.146-.386-2.056 2.002a10.27 10.27 0 005.069 1.119s13.196 2.494 14.671 3.825c0 0 11.385 4.687 11.737 5.414 0 0 1.001 0-1.593-1.963-2.593-1.963-11.552-5.514-11.552-5.514l-9.658-3.104-3.644-.398-2.974-1.381z" fill="#fff"/><path d="M188.771 120.881a16.259 16.259 0 004.298-3.272c.558-.66 1.028-1.404 1.604-2.053a10.533 10.533 0 015.41-3.087 26.44 26.44 0 016.265-.609 11.48 11.48 0 014.17.503 4.188 4.188 0 012.761 2.97c.307 1.678-.788 3.305-2.102 4.385a10.143 10.143 0 01-4.203 2.041 34.316 34.316 0 01-3.795.442c-7.478.783-14.151 4.855-20.679 8.563-5.757 3.26-9.021 3.109-14.996 5.94-.235-1.79-2.94-.403-2.901-2.21.034-1.348.101-3.406 1.375-4.2 1.481-.923 3.913-1.119 5.589-1.678a90.011 90.011 0 0011.262-4.558 95.388 95.388 0 005.942-3.177z" fill="#A0616A"/><path opacity=".1" d="M139.386 115.875l28.655 25.952s5.404-10.812 7.025-10.812c1.621 0-19.45-31.88-19.45-31.88s-5.404-6.487-8.646-3.243c-3.242 3.243-12.989 1.057-7.584 19.983z" fill="#000"/><path d="M138.843 114.796l28.639 25.951s5.404-10.817 7.025-10.817c1.621 0-19.455-31.88-19.455-31.88s-5.405-6.493-8.647-3.249c-3.241 3.244-12.966 1.068-7.562 19.995z" fill="#9AE6B4"/><path d="M185.993 69.05a8.616 8.616 0 001.503-2.348c2.471-5.593-1.447-12.618-8.137-14.542-3.354-.979-7.11-.783-10.458-1.823-2.694-.834-4.963-2.41-7.433-3.641a31.325 31.325 0 00-14.951-3.21c-5.058.178-10.558 1.957-12.631 5.866-3.029 5.694 2.543 12.864-.833 18.407-2.481 4.072-8.501 5.274-13.492 7.041a36.817 36.817 0 00-13.771 8.541c-3.913 3.915-6.707 9.284-4.74 14.139 1.146 2.847 3.734 5.073 5.79 7.528a24.058 24.058 0 011.504 29.24c-.961 1.382-2.085 2.73-2.482 4.296-.95 3.736 2.884 7.494 7.316 8.221 4.433.727 9.032-.928 12.481-3.372a22.457 22.457 0 007.439-8.658c4.097-8.692 1.218-18.457.81-27.814-.05-1.091 0-2.276.766-3.132 1.185-1.281 3.42-1.247 5.332-1.415 4.946-.436 9.501-3.21 11.597-7.036 4.008-7.36-.659-17.646 6.344-23.183 8.814-6.969 21.501 4.05 28.046-3.104z" fill="#3F3D56"/><path opacity=".1" d="M179.359 52.138h-.056c2.615 3.031 3.599 7.125 2.045 10.66a8.615 8.615 0 01-1.503 2.349c-6.545 7.153-19.232-3.865-28.046 3.104-7.003 5.537-2.336 15.823-6.344 23.183-2.079 3.826-6.651 6.6-11.597 7.036-1.911.168-4.147.134-5.332 1.415-.788.856-.816 2.041-.766 3.132.408 9.357 3.287 19.122-.81 27.814a22.457 22.457 0 01-7.439 8.658c-3.449 2.433-8.043 4.111-12.48 3.384l-.308-.068a9.795 9.795 0 006.456 3.983c4.437.721 9.003-.957 12.48-3.395a22.457 22.457 0 007.439-8.658c4.097-8.692 1.218-18.457.81-27.814-.05-1.091 0-2.276.766-3.132 1.185-1.281 3.421-1.247 5.332-1.415 4.946-.436 9.501-3.21 11.597-7.036 4.008-7.36-.659-17.646 6.344-23.183 8.814-6.969 21.501 4.05 28.046-3.104a8.615 8.615 0 001.503-2.35c2.471-5.609-1.447-12.589-8.137-14.563z" fill="#000"/></svg>