<svg width="151" height="102" fill="none" xmlns="http://www.w3.org/2000/svg"><rect width="102" height="84" rx="5" fill="#9AE6B4"/><path stroke="#C6F6D5" d="M51.5 0v84M11.5 0v84M91.5 0v84"/><path d="M77.367 54.93c3.646 3.645 8.073 5.468 13.281 5.468 5.209 0 9.636-1.823 13.282-5.468 3.646-3.646 5.468-8.073 5.468-13.282 0-5.208-1.822-9.635-5.468-13.28-3.646-3.647-8.073-5.47-13.282-5.47-5.208 0-9.635 1.823-13.28 5.47-3.647 3.645-5.47 8.072-5.47 13.28 0 5.209 1.823 9.636 5.47 13.282zm38.281 5.468l20.704 20.704-6.25 6.25-20.704-20.704v-3.32l-1.171-1.172c-4.948 4.297-10.808 6.446-17.579 6.446-7.552 0-13.997-2.605-19.335-7.813C66.103 55.581 63.5 49.2 63.5 41.65c0-7.553 2.604-13.933 7.813-19.141C76.65 17.169 83.096 14.5 90.648 14.5c7.553 0 13.933 2.67 19.141 8.008 5.208 5.208 7.813 11.588 7.813 19.14 0 2.735-.651 5.86-1.954 9.375-1.302 3.386-2.799 6.12-4.492 8.204l1.172 1.171h3.32zM25.922 26.578c.583.547 1.276.82 2.078.82.802 0 1.477-.273 2.023-.82.584-.583.875-1.276.875-2.078 0-.802-.291-1.477-.875-2.023A2.663 2.663 0 0028 21.602c-.802 0-1.495.291-2.078.875-.547.546-.82 1.22-.82 2.023 0 .802.273 1.495.82 2.078zm-3.719-7.82c1.604-1.604 3.537-2.406 5.797-2.406s4.175.802 5.742 2.406c1.604 1.568 2.406 3.482 2.406 5.742 0 1.13-.291 2.424-.875 3.883a22.58 22.58 0 01-2.023 4.101 77.674 77.674 0 01-2.406 3.61c-.766 1.093-1.422 1.968-1.969 2.625l-.875.93c-.219-.256-.51-.584-.875-.985-.365-.437-1.02-1.276-1.969-2.516a55.573 55.573 0 01-2.515-3.664 29.883 29.883 0 01-1.914-4.047c-.584-1.494-.875-2.807-.875-3.937 0-2.26.783-4.174 2.351-5.742z" fill="#48BB78"/></svg>