<svg width="92" height="92" fill="none" xmlns="http://www.w3.org/2000/svg"><path d="M25.297 66.703c5.729 5.6 12.63 8.399 20.703 8.399 8.073 0 14.909-2.8 20.508-8.399 5.729-5.729 8.594-12.63 8.594-20.703 0-8.073-2.865-14.909-8.594-20.508-5.6-5.729-12.435-8.594-20.508-8.594-8.073 0-14.974 2.865-20.703 8.594-5.6 5.6-8.399 12.435-8.399 20.508 0 8.073 2.8 14.974 8.399 20.703zm58.008-24.805h8.593v8.204h-8.593c-.912 8.203-4.623 15.56-11.133 22.07-6.51 6.51-13.867 10.221-22.07 11.133v8.593h-8.204v-8.593c-8.203-.912-15.56-4.623-22.07-11.133-6.51-6.51-10.221-13.867-11.133-22.07H.102v-8.204h8.593c.912-8.203 4.623-15.56 11.133-22.07 6.51-6.51 13.867-10.221 22.07-11.133V.102h8.204v8.593c8.203.912 15.56 4.623 22.07 11.133 6.51 6.51 10.221 13.867 11.133 22.07zM34.28 34.281c3.255-3.255 7.162-4.883 11.719-4.883 4.557 0 8.464 1.628 11.719 4.883 3.255 3.255 4.883 7.162 4.883 11.719 0 4.557-1.628 8.464-4.883 11.719-3.255 3.255-7.162 4.883-11.719 4.883-4.557 0-8.464-1.628-11.719-4.883-3.255-3.255-4.883-7.162-4.883-11.719 0-4.557 1.628-8.464 4.883-11.719z" fill="#48BB78"/></svg>