<svg width="216" height="90" fill="none" xmlns="http://www.w3.org/2000/svg"><rect width="216" height="90" rx="5" fill="#48BB78"/><path d="M75.18 70.48v-6.42c-2.2-.04-4.34-.22-6.42-.54-2.08-.36-3.76-.84-5.04-1.44v-5.1c1.36.64 3.1 1.2 5.22 1.68 2.12.48 4.2.74 6.24.78V47.32c-3.96-1.08-6.86-2.44-8.7-4.08-1.84-1.64-2.76-3.88-2.76-6.72 0-2.96 1.02-5.28 3.06-6.96 2.08-1.68 4.88-2.62 8.4-2.82v-5.28h3.84v5.22c2.12.04 4.04.28 5.76.72 1.76.4 3.36.9 4.8 1.5l-1.62 4.44c-1.28-.52-2.7-.96-4.26-1.32-1.52-.4-3.08-.66-4.68-.78V43.3c2.64.76 4.84 1.58 6.6 2.46 1.76.84 3.08 1.9 3.96 3.18.92 1.24 1.38 2.86 1.38 4.86 0 2.8-1.04 5.08-3.12 6.84-2.08 1.72-5.02 2.78-8.82 3.18v6.66h-3.84zm0-28.5V31.36c-2.16.16-3.76.66-4.8 1.5-1 .84-1.5 1.92-1.5 3.24 0 1.6.44 2.84 1.32 3.72.92.84 2.58 1.56 4.98 2.16zm3.84 17.16c2.36-.24 4.08-.78 5.16-1.62 1.08-.88 1.62-2 1.62-3.36 0-1.52-.48-2.66-1.44-3.42-.96-.8-2.74-1.52-5.34-2.16v10.56zm30.496 11.34v-6.42c-2.2-.04-4.34-.22-6.42-.54-2.08-.36-3.76-.84-5.04-1.44v-5.1c1.36.64 3.1 1.2 5.22 1.68 2.12.48 4.2.74 6.24.78V47.32c-3.96-1.08-6.86-2.44-8.7-4.08-1.84-1.64-2.76-3.88-2.76-6.72 0-2.96 1.02-5.28 3.06-6.96 2.08-1.68 4.88-2.62 8.4-2.82v-5.28h3.84v5.22c2.12.04 4.04.28 5.76.72 1.76.4 3.36.9 4.8 1.5l-1.62 4.44c-1.28-.52-2.7-.96-4.26-1.32-1.52-.4-3.08-.66-4.68-.78V43.3c2.64.76 4.84 1.58 6.6 2.46 1.76.84 3.08 1.9 3.96 3.18.92 1.24 1.38 2.86 1.38 4.86 0 2.8-1.04 5.08-3.12 6.84-2.08 1.72-5.02 2.78-8.82 3.18v6.66h-3.84zm0-28.5V31.36c-2.16.16-3.76.66-4.8 1.5-1 .84-1.5 1.92-1.5 3.24 0 1.6.44 2.84 1.32 3.72.92.84 2.58 1.56 4.98 2.16zm3.84 17.16c2.36-.24 4.08-.78 5.16-1.62 1.08-.88 1.62-2 1.62-3.36 0-1.52-.48-2.66-1.44-3.42-.96-.8-2.74-1.52-5.34-2.16v10.56zm30.496 11.34v-6.42c-2.2-.04-4.34-.22-6.42-.54-2.08-.36-3.76-.84-5.04-1.44v-5.1c1.36.64 3.1 1.2 5.22 1.68 2.12.48 4.2.74 6.24.78V47.32c-3.96-1.08-6.86-2.44-8.7-4.08-1.84-1.64-2.76-3.88-2.76-6.72 0-2.96 1.02-5.28 3.06-6.96 2.08-1.68 4.88-2.62 8.4-2.82v-5.28h3.84v5.22c2.12.04 4.04.28 5.76.72 1.76.4 3.36.9 4.8 1.5l-1.62 4.44c-1.28-.52-2.7-.96-4.26-1.32-1.52-.4-3.08-.66-4.68-.78V43.3c2.64.76 4.84 1.58 6.6 2.46 1.76.84 3.08 1.9 3.96 3.18.92 1.24 1.38 2.86 1.38 4.86 0 2.8-1.04 5.08-3.12 6.84-2.08 1.72-5.02 2.78-8.82 3.18v6.66h-3.84zm0-28.5V31.36c-2.16.16-3.76.66-4.8 1.5-1 .84-1.5 1.92-1.5 3.24 0 1.6.44 2.84 1.32 3.72.92.84 2.58 1.56 4.98 2.16zm3.84 17.16c2.36-.24 4.08-.78 5.16-1.62 1.08-.88 1.62-2 1.62-3.36 0-1.52-.48-2.66-1.44-3.42-.96-.8-2.74-1.52-5.34-2.16v10.56z" fill="#C6F6D5"/><path stroke="#C6F6D5" d="M29.5 19.031V77M188.5 19.031V77"/></svg>